Coordinates
version=1
nRows=13
nColumns=34
inDegrees=yes

Units are S.I. units (second, meters, Newtons, ...)
If the header above contains a line with 'inDegrees', this indicates whether rotational values are in degrees (yes) or radians (no).

endheader
time	pelvis_tilt	pelvis_list	pelvis_rotation	pelvis_tx	pelvis_ty	pelvis_tz	hip_flexion_r	hip_adduction_r	hip_rotation_r	knee_angle_r	ankle_angle_r	subtalar_angle_r	mtp_angle_r	hip_flexion_l	hip_adduction_l	hip_rotation_l	knee_angle_l	ankle_angle_l	subtalar_angle_l	mtp_angle_l	lumbar_extension	lumbar_bending	lumbar_rotation	arm_flex_r	arm_add_r	arm_rot_r	elbow_flex_r	pro_sup_r	arm_flex_l	arm_add_l	arm_rot_l	elbow_flex_l	pro_sup_l
      1.35000000	      6.92688541	     -0.44282670	    -23.18221521	      0.35158118	      0.99686169	      0.13926939	     -8.96384959	     -5.28048583	    -15.92117989	      1.47567163	     10.81805470	     -0.36909029	      0.00000000	     -4.08025596	     -5.22286372	    -13.48330638	      4.88119313	     12.52627234	      1.35422540	      0.00000000	     -7.13871714	     -0.15349458	      1.61374473	     13.79742195	    -14.07883234	     36.77404431	     18.27071806	    111.39565322	     11.57157549	    -15.56760382	     36.01945389	     17.87152597	    110.62285826
      1.36666670	      6.94677763	     -0.44347915	    -23.17207728	      0.35177763	      0.99687145	      0.13934569	     -8.98265320	     -5.28213350	    -15.90666396	      1.50542978	     10.80916146	     -0.36059269	      0.00000000	     -4.09878954	     -5.22481115	    -13.48505210	      4.89328946	     12.50223128	      1.36621371	      0.00000000	     -7.13565372	     -0.16931145	      1.60005049	     13.76534036	    -14.65598749	     36.69148715	     18.07495107	    111.38747832	     11.50118803	    -16.04574219	     35.95051328	     17.70749553	    110.61365422
      1.38333330	      6.97937336	     -0.44417607	    -23.13215788	      0.35224524	      0.99689555	      0.13945174	     -9.03411416	     -5.30979600	    -15.89545086	      1.55687762	     10.80996576	     -0.36254811	      0.00000000	     -4.14419108	     -5.21079402	    -13.48846724	      4.90915898	     12.48656802	      1.37774921	      0.00000000	     -7.07451446	     -0.14778292	      1.60381829	     13.73546066	    -15.18478296	     36.61252417	     17.89075200	    111.38008369	     11.43190889	    -16.48483855	     35.88339476	     17.55655178	    110.60484895
      1.40000000	      7.00922385	     -0.44650324	    -23.10275642	      0.35281341	      0.99694919	      0.13949729	     -9.08293537	     -5.33276264	    -15.88772745	      1.61435927	     10.82238827	     -0.37394937	      0.00000000	     -4.19890811	     -5.19676983	    -13.48918541	      4.92180652	     12.48087225	      1.38897310	      0.00000000	     -7.02773681	     -0.14556075	      1.58807619	     13.67457812	    -15.65623464	     36.54055133	     17.71398477	    111.37395108	     11.34979313	    -16.82315875	     35.82614717	     17.43365078	    110.59789052
      1.41666670	      7.52989879	     -0.48294798	    -23.27132632	      0.35455025	      0.99779599	      0.13958756	     -9.75182913	     -5.60932689	    -15.69054736	      1.56695925	     10.98999205	     -0.27408686	      0.00000000	     -5.28217110	     -4.83151501	    -13.81871526	      4.14212664	     12.44908958	      1.91108731	      0.00000000	     -7.37331518	     -0.21398670	      1.84398504	     13.11452583	    -15.86326318	     32.48585302	     17.82973382	    112.54380740	     10.64823388	    -16.65461985	     31.35229976	     18.06845941	    110.89905024
      1.43333330	      7.54653624	     -0.48218718	    -23.23440462	      0.35446627	      0.99779231	      0.13963291	     -9.76385067	     -5.61109669	    -15.69732968	      1.59001049	     11.00139338	     -0.28880677	      0.00000000	     -5.28021487	     -4.83960159	    -13.81668424	      4.15272442	     12.43858313	      1.91537916	      0.00000000	     -7.33495193	     -0.24088273	      1.85888363	     13.14267392	    -16.13784562	     32.44800631	     17.75112742	    112.54651299	     10.60252682	    -16.86955377	     31.32570644	     17.98470441	    110.90114719
      1.45000000	      7.56770365	     -0.47652521	    -23.20232560	      0.35423886	      0.99778255	      0.13952487	     -9.76478748	     -5.61754418	    -15.70418158	      1.60057391	     11.02300203	     -0.30690502	      0.00000000	     -5.26851091	     -4.82595840	    -13.81658787	      4.15252008	     12.43603398	      1.91812515	      0.00000000	     -7.31363113	     -0.24485302	      1.86099598	     13.17026891	    -16.37151848	     32.41336085	     17.68011432	    112.54972830	     10.57794056	    -17.02239538	     31.30290821	     17.92331612	    110.90422426
      1.46666670	      7.56751137	     -0.46079852	    -23.15617755	      0.35401425	      0.99777327	      0.13928612	     -9.75767823	     -5.63273388	    -15.71304314	      1.59666871	     11.05274501	     -0.32837412	      0.00000000	     -5.24012735	     -4.81018386	    -13.81414780	      4.13767466	     12.43562578	      1.92371323	      0.00000000	     -7.32959678	     -0.24979479	      1.87493358	     13.20253326	    -16.56714094	     32.37939316	     17.61858441	    112.55349398	     10.55156321	    -17.11896682	     31.27987521	     17.87258176	    110.90722191
      1.48333330	      7.56064982	     -0.44522541	    -23.11423751	      0.35386011	      0.99781494	      0.13911605	     -9.74912039	     -5.64606266	    -15.72207174	      1.59163065	     11.07913129	     -0.34825968	      0.00000000	     -5.21306913	     -4.79946934	    -13.80741558	      4.12490598	     12.43515045	      1.93179767	      0.00000000	     -7.34038873	     -0.27821246	      1.88875538	     13.24911991	    -16.73061005	     32.34588633	     17.57050680	    112.55688740	     10.54313794	    -17.17239500	     31.25412168	     17.83404429	    110.90895795
      1.50000000	      7.55342380	     -0.42344914	    -23.07051169	      0.35365926	      0.99783560	      0.13887731	     -9.73256428	     -5.66341558	    -15.72826106	      1.58595141	     11.10065081	     -0.36484348	      0.00000000	     -5.17880536	     -4.78382811	    -13.79647085	      4.11397738	     12.43866104	      1.94047358	      0.00000000	     -7.37724502	     -0.29891084	      1.91157858	     13.26786974	    -16.85421944	     32.31710111	     17.52573404	    112.55969805	     10.51664574	    -17.21951319	     31.22532656	     17.78859623	    110.90848139
      1.51666670	      7.58191995	     -0.03793572	    -22.79120309	      0.35311583	      0.99761102	      0.13773847	     -9.43840588	     -6.11127551	    -15.86962765	      1.93763388	     11.39806396	     -0.75605277	      0.00000000	     -4.82193612	     -4.39901471	    -13.43692985	      4.32124363	     12.52903278	      2.13927479	      0.00000000	     -7.33646999	     -0.68086867	      1.77548901	     13.27834848	    -16.83854843	     31.78235205	     17.22498780	    112.73515298	     10.81799138	    -16.96047251	     30.26467189	     17.13349483	    110.88290296
      1.53333330	      7.57628285	     -0.03119636	    -22.76873783	      0.35262953	      0.99760108	      0.13768179	     -9.41568988	     -6.09454091	    -15.87079572	      1.92324519	     11.40097406	     -0.75644293	      0.00000000	     -4.79177637	     -4.41496950	    -13.44395245	      4.30115618	     12.52798930	      2.13485931	      0.00000000	     -7.38314208	     -0.70017227	      1.78996265	     13.27470362	    -16.86858501	     31.76740468	     17.21570864	    112.73718711	     10.75955930	    -16.95051689	     30.25292280	     17.12067751	    110.88349205
      1.55000000	      7.57024851	     -0.02959498	    -22.75060885	      0.35195902	      0.99763855	      0.13752076	     -9.37910069	     -6.08115809	    -15.87244009	      1.89838875	     11.40607136	     -0.75743674	      0.00000000	     -4.75015765	     -4.41918291	    -13.45100302	      4.27466669	     12.52586500	      2.13245734	      0.00000000	     -7.43716946	     -0.70850838	      1.79478601	     13.27515564	    -16.87082669	     31.74956573	     17.21644560	    112.73958422	     10.70986577	    -16.89436445	     30.23853057	     17.12314000	    110.88392806
